<svg xmlns="http://www.w3.org/2000/svg" viewBox="0 0 512 512">
  <!-- Font Awesome Free 6.4.0 by @fontawesome - https://fontawesome.com License - https://fontawesome.com/license (Commercial License) Copyright 2023 Fonticons, Inc. -->
  <path fill="#ffffff" d="M160 0c-6.3 0-12.5 1.7-18 5.1L72 47C48.8 61.3 32 87.8 32 116.3v84.5C13.4 209.8 0 229.2 0 252.8v19.2C0 321 51 371.9 115.2 383.6c3.8 14.3 8.3 28.3 13.5 41.8c11.8 30.6 27.4 59.3 46.2 85.3c1.9 2.6 5.4 3.5 8.3 2.1s4.4-4.5 3.5-7.6c-2.9-9.9-4.7-20.2-5.3-30.6c-.6-9.6 1.1-19.1 5.3-27.5c7.8-15.5 23.9-24.6 40.6-23.6c9 .5 17.6 3.7 25.1 8.6c7 4.6 13.7 10.2 20 16.3c12.3 11.8 23.4 25 33.3 39.1c3.7 5.3 7.3 10.7 10.7 16.2c2 3.2 6.4 4 9.3 1.7s3.4-6.4 1.4-9.5c-4.6-7.2-9.7-14.2-15-21c-3.6-4.6-7.3-9.1-11.2-13.5L311.9 352c13.7 0 27.4-1.7 40.9-5.1c81.2-20.4 139.2-93.6 139.2-180.1V160 148.8c0-13.6-4.2-26.8-12-38.1l-42.9-62.5C426.8 33.4 411.8 24 395.5 24c-7.2 0-14.3 1.5-20.9 4.3L288 64l-58.9-35.4C222.6 24.7 215.7 22 208.7 20c-7.7-2.2-15.6-3.2-23.6-3L160 0zM96 116.3c0-14.2 8.4-27.1 21.3-33L160 57.6V168c0 4.4 3.6 8 8 8s8-3.6 8-8V53.9c10.5 1.1 20.8 4.3 30.4 9.4L272 104l0 64c0 4.4 3.6 8 8 8s8-3.6 8-8V115.8l76.8-35.9c3.3-1.5 6.9-2.3 10.6-2.3c8.2 0 15.9 4.7 19.6 12l42.9 62.5c5.2 7.5 8 16.4 8 25.4V160v6.8C446 251.1 394.1 317 324.8 335.1c-12.3 3.2-24.9 4.9-37.6 4.9H270.9 181.3c-6.9 0-13.7 1.4-20.1 4.1c-.6 .2-1.1 .5-1.7 .7c-9 4-17.4 9.1-25 15.4c-1 .8-1.9 1.6-2.9 2.5c-11.1-16.2-19.8-34-26-52.7c-.6-1.8-1.1-3.7-1.6-5.5c-2.8-10.8-11.2-19.3-21.9-22.6C33.2 257.5 16 230.4 16 199.1v-19.2c0-17.7 14.3-32 32-32h37.5c4.4 0 8-3.6 8-8s-3.6-8-8-8H48c-13.3 0-24 10.7-24 24c0 4.4 3.6 8 8 8s8-3.6 8-8c0-4.4 3.6-8 8-8h16c4.4 0 8 3.6 8 8c0 13.3 10.7 24 24 24h8v4.3c0 4.4 3.6 8 8 8s8-3.6 8-8v-4.3h16c13.3 0 24-10.7 24-24c0-4.4 3.6-8 8-8h16c4.4 0 8 3.6 8 8c0 4.4 3.6 8 8 8s8-3.6 8-8c0-13.3-10.7-24-24-24H96v-84.5z"/>
</svg>
